<?xml version="1.0" encoding="UTF-8"?>
<svg width="752pt" height="752pt" version="1.1" viewBox="0 0 752 752" xmlns="http://www.w3.org/2000/svg">
 <path d="m325.18 317.62c10.176-19.941 25.121-36.234 36.352-55.402 11.379-19.426 15.25-42.91 24.605-63.309-3.7578-0.49219-7.5078-0.98047-11.266-1.4688 4.5547 23.406 18.332 43.398 28.805 64.461 9.2734 18.641 20.004 38.223 35.562 52.391 31.613 28.773 95.363 19.477 134.09 21.367-1.457-3.5078-2.9062-7.0156-4.3594-10.527-29.438 31.168-75.047 55.559-88.016 99.363-5.8516 19.762 6.6992 48.672 10.266 68.125 3.1328 17.07 4.8633 34.188 5.418 51.508 0.32031 10.148-28.336-8.6328-30.758-10.352-19.145-13.527-58.375-63.02-85.637-54.094-16.246 5.3164-28.934 17.984-41.562 29-21.18 18.465-49.891 30.852-75.418 42.211 3.0938 1.7695 6.1875 3.5508 9.2773 5.3242-1.7852-48.496 17.383-92.941 27.586-139.54 0.73438-3.3555-0.96094-6.5625-4.3047-7.582-47.594-14.547-81.93-52.148-112.79-89.324-1.4531 3.5117-2.9023 7.0195-4.3594 10.527 26.016 3.1953 50.875-2.8867 76.508-6.6367 15.59-2.2852 45.133-11.453 59.418-1.6953 6.5859 4.5039 12.746-6.1914 6.2266-10.645-13.59-9.2852-35.426-4.3984-50.445-2.418-30.457 4.0234-60.855 12.855-91.707 9.0625-5.9414-0.73047-7.332 6.9453-4.3594 10.527 32.34 38.961 68.457 77.289 118.23 92.496-1.4336-2.5312-2.8711-5.0508-4.3047-7.582-10.445 47.715-29.859 93.184-28.031 142.81 0.18359 5.0234 5.0156 7.2227 9.2773 5.3242 22.762-10.129 49.711-21.086 69.168-36.852 8.0508-6.5234 15.746-13.457 23.668-20.121 17.539-14.766 30.227-13.172 48.055-0.22656 26.082 18.934 57.777 61.762 93.996 54.609 2.6797-0.52344 4.5078-3.3555 4.5273-5.9453 0.12891-18.484-1.6016-36.586-4.3125-54.848-3.5703-24.098-18.465-57.668-7.957-80.656 16.281-35.621 55.266-56.352 81.051-83.672 3.793-4.0117 1.0195-10.266-4.3594-10.527-40.387-1.9688-86.297 3.6094-123.09-16.27-16.809-9.0781-27.523-35.125-35.91-51.375-10.234-19.832-23.258-39.383-27.566-61.516-0.97656-5.043-9.0781-6.25-11.266-1.4688-9.4766 20.648-14.754 42.828-24.613 63.309-9.5 19.742-26.27 35.652-36.348 55.41-3.6133 7.0664 7.0273 13.312 10.641 6.2227z"/>
</svg>
