<?xml version="1.0" encoding="UTF-8"?>
<svg width="752pt" height="752pt" version="1.1" viewBox="0 0 752 752" xmlns="http://www.w3.org/2000/svg">
 <path d="m578.79 318.65-131.75-19.18-60.809-123.13c-1.875-3.8359-5.7695-6.2656-10.039-6.2656-4.2695 0-8.1641 2.4297-10.039 6.2656l-61.188 123.13-131.94 18.941c-4.9805 0.71484-9.125 4.1992-10.684 8.9883-1.5586 4.7852-0.26172 10.043 3.3438 13.555l95.664 93.246-22.684 133.64c-0.75781 4.5352 1.1172 9.1094 4.8398 11.809s8.6523 3.0586 12.73 0.93359l119.77-63.082 120.01 63.082c4.0547 1.9961 8.8867 1.5664 12.531-1.1094 3.6445-2.6797 5.4961-7.1641 4.8008-11.633l-22.684-133.64 95.473-93.059c3.5781-3.5156 4.8555-8.7539 3.3008-13.52-1.5586-4.7695-5.6797-8.2461-10.641-8.9727z"/>
</svg>
